<svg width="147" height="36" xmlns="http://www.w3.org/2000/svg"><defs><linearGradient x1="10.678%" y1="54.072%" x2="96.375%" y2="43.542%" id="a"><stop stop-color="#FF981A" offset="0%"/><stop stop-color="#A3CC29" offset="100%"/></linearGradient><linearGradient x1="5.184%" y1="63.877%" x2="94.816%" y2="35.881%" id="b"><stop stop-color="#C0D653" offset="0%"/><stop stop-color="#9AB625" offset="44.522%"/><stop stop-color="#FF8314" offset="56.346%"/><stop stop-color="#FFAC47" offset="100%"/></linearGradient></defs><g fill="none"><path d="M44.397 12.983c.738 0 1.371.445 1.647 1.081a7.136 7.136 0 013.735-1.047 7.16 7.16 0 015.382 2.43 7.175 7.175 0 0112.555 4.586v.031l.001 9.192a1.794 1.794 0 11-3.587 0v-9.064a3.588 3.588 0 00-7.176 0v9.064a1.794 1.794 0 11-3.587 0v-9.064a3.588 3.588 0 00-7.176 0v9.002a1.794 1.794 0 11-3.587 0V14.777c0-.99.803-1.794 1.793-1.794zm39.465.034c.99 0 1.794.803 1.794 1.793v14.386a1.794 1.794 0 01-3.441.712 7.175 7.175 0 01-10.91-6.128v-3.588a7.175 7.175 0 017.175-7.175h5.382zm7.175-.036c.738 0 1.372.446 1.647 1.083a7.14 7.14 0 013.735-1.047 1.794 1.794 0 110 3.587 3.588 3.588 0 00-3.588 3.588v9.004a1.794 1.794 0 11-3.588 0v-14.42c0-.992.803-1.795 1.794-1.795zm17.938-8.934a1.794 1.794 0 110 3.588h-1.793a3.588 3.588 0 00-3.583 3.397l-.005.19v1.79h2.87a1.794 1.794 0 110 3.587h-2.87v12.562a1.794 1.794 0 01-3.588 0V11.223a7.175 7.175 0 017.176-7.176h1.793zm7.176 8.97a7.175 7.175 0 017.175 7.175v1.794c0 .99-.803 1.794-1.794 1.794h-8.969a3.588 3.588 0 003.588 3.587h3.587a1.794 1.794 0 110 3.588h-3.587a7.175 7.175 0 01-7.176-7.175v-3.588a7.175 7.175 0 017.176-7.175zm16.144 0a7.175 7.175 0 017.176 7.175v1.794c0 .99-.804 1.794-1.794 1.794h-8.97a3.588 3.588 0 003.588 3.587h3.588a1.794 1.794 0 010 3.588h-3.588a7.175 7.175 0 01-7.175-7.175v-3.588a7.175 7.175 0 017.175-7.175zm10.763-7.14c.99 0 1.794.802 1.794 1.793v21.456a1.794 1.794 0 01-3.588 0V7.67c0-.99.804-1.794 1.794-1.794zm-60.99 10.727H78.48a3.588 3.588 0 00-3.587 3.588v3.588a3.588 3.588 0 107.175 0v-7.176zm34.083 0a3.588 3.588 0 00-3.588 3.588h7.175a3.588 3.588 0 00-3.587-3.588zm16.144 0a3.588 3.588 0 00-3.587 3.588h7.175a3.588 3.588 0 00-3.588-3.588z" fill="url(#a)" transform="translate(1)"/><path d="M30.25 0l3.654 13.515a2.663 2.663 0 01-1.902 3.264L20.31 19.882c-1.389.37-2.24 1.757-1.945 3.135l.878 3.254a2.664 2.664 0 01-1.902 3.266L5.65 32.643a2.664 2.664 0 00-1.902 3.266L.092 22.386a2.664 2.664 0 011.902-3.266l11.692-3.105c1.406-.374 2.258-1.792 1.93-3.188l-.863-3.195a2.663 2.663 0 011.902-3.264l11.692-3.104A2.663 2.663 0 0030.25 0z" fill="url(#b)" transform="translate(1)"/></g></svg>
